<?xml version="1.0" encoding="utf-8"?>
<!-- Generator: Adobe Illustrator 19.1.0, SVG Export Plug-In . SVG Version: 6.00 Build 0)  -->
<svg version="1.1" id="Layer_1" xmlns="http://www.w3.org/2000/svg" xmlns:xlink="http://www.w3.org/1999/xlink" x="0px" y="0px"
	 viewBox="-425 252 109 58" style="enable-background:new -425 252 109 58;" xml:space="preserve">
<style type="text/css">
	.st0{fill:none;}
	.st1{fill:#22D4C8;}
	.st2{fill:#FFFFFF;}
</style>
<rect x="-425" y="252" class="st0" width="109" height="58"/>
<g>
	<g>
		<path class="st1" d="M-361.6,254.6c6.2,1.7,9.4,3.8,11,8.5c1,3,0.6,10.8-1.7,15.3c-3,5.9-8.1,8.9-12.3,10.4
			c-4.6,1.8-13.8,1.8-17.2,0.4c-3.1-1.3-7.7-4.4-8.6-10.4s-0.1-13.2,2.3-16.9c2.8-4.3,5-6.2,9.7-7.5
			C-372.8,252.7-365,253.7-361.6,254.6z"/>
		<path class="st2" d="M-379,262.9c0,0,2.4,2.2,2.4,5.9c0,3.1-2.2,5.6-2.5,7.2c-0.3,1.5-0.6,3.7,0,5.4c0.6,1.9,1.3,3.4,1.3,3.4
			s-3.7-2.5-4.2-6.3c-0.4-3.2,0.8-5.3,1.8-7.1c0.4-0.8,1.4-2.7,1.5-5C-378.6,264.1-379,262.9-379,262.9z M-385.7,265.6
			c-0.2,0.2-0.2,1.9,0.9,3.2c1.1,1.3,2.7,1.8,3,1.4c0.4-0.3,0.2-1.9-0.9-3.2C-383.8,265.8-385.3,265.2-385.7,265.6z M-372.9,276.2
			c-0.2-0.2-1.9,0.1-3.1,1.3c-1.2,1.2-1.4,2.8-1.1,3.2c0.3,0.3,1.9-0.1,3.1-1.3C-372.9,278.2-372.6,276.5-372.9,276.2z
			 M-366.8,257.1c-0.6,0.2-0.9,1.7-0.6,3.1c0.3,1.2,1.4,2.3,2.4,2.2c0.8-0.1,1.3-1.1,0.9-2.8C-364.6,258-366.2,256.9-366.8,257.1z
			 M-372.3,264.1c1.4,1.7,4.4,3.1,4.6,3.4c0.2,0.3-0.4,2.9-0.6,4.9c0,2,0,4.8,0.3,5.8c0.1,0.4,0.7,2.7,0.9,3.4c0.4,1.2,1.8,5,2,5.1
			c0.2,0,0-3.9,0-5.2s-0.6-3.1-0.7-3.4c-0.1-0.3,0.1-1.7,0.1-1.7s0.1-0.8,0.7-2.1s1-2.4,1.1-2.7c0.1-0.1,3.3,3.8,6.8,5.4
			c2.2,1.1,3.4,1.3,3.4,1.1c0-0.1-0.6-0.6-1.1-1.1c-0.6-0.6-2.3-2.7-3.2-4.1c-0.9-1.3-3.5-4.1-4.3-4.9c-0.2-0.2-0.2-0.2,0-0.4
			c0.2-0.2,2.1-0.3,5.6-2.7c2-1.3,3.8-3.7,3.7-3.9c-0.1-0.1-5.8,2.3-8.1,2.8c-2.3,0.4-4.9,0.4-6,0.2s-1.3-0.2-3.1-0.9
			c-1.8-0.7-4-2.7-4.1-2.5C-374.3,260.8-373.7,262.5-372.3,264.1z"/>
	</g>
	<path class="st1" d="M-420.1,298.9c2.4,0,3.9,1.2,3.9,3.3c0,2.2-1.4,3.5-3.9,3.5h-1.8v2.7h-2.4v-9.5
		C-424.3,298.9-420.1,298.9-420.1,298.9z M-421.9,303.9h1.7c1.1,0,1.7-0.6,1.7-1.5c0-1-0.7-1.5-1.7-1.5h-1.7V303.9z M-409.4,306.7
		l-0.7,1.8h-2.5l4.1-9.5h2.5l4,9.5h-2.5l-0.7-1.8H-409.4z M-407.3,301.3l-1.4,3.5h2.8L-407.3,301.3z M-392.4,305.7L-392.4,305.7
		h-1.9v2.7h-2.4v-9.5h4.3c2.5,0,4,1.2,4,3.3c0,1.4-0.7,2.5-1.8,3.1l2,3.2h-2.8L-392.4,305.7z M-392.4,303.9c1.1,0,1.7-0.6,1.7-1.5
		c0-1-0.7-1.5-1.7-1.5h-1.9v3.1C-394.3,303.9-392.4,303.9-392.4,303.9z M-380.5,306.7l-0.7,1.8h-2.5l4.1-9.5h2.5l4,9.5h-2.5
		l-0.7-1.8H-380.5z M-378.4,301.3l-1.4,3.5h2.8L-378.4,301.3z M-360.4,299.9l-1,1.9c-1-0.6-2.3-1-3.1-1c-0.7,0-1.1,0.2-1.1,0.7
		c0,1.7,5.1,0.7,5.1,4.2c0,1.9-1.7,2.9-3.9,2.9c-1.5,0-3.2-0.6-4.3-1.5l1-1.9c1,0.9,2.4,1.4,3.4,1.4c0.8,0,1.2-0.3,1.2-0.9
		c0-1.7-5.1-0.7-5.1-4.1c0-1.8,1.5-2.9,3.8-2.9C-362.9,298.8-361.4,299.2-360.4,299.9z M-348.5,308.4v-3.8h-4v3.8h-2.4v-9.5h2.4v4h4
		v-4h2.4v9.5H-348.5z M-330.2,303.6c0,2.8-2.2,4.9-5.2,4.9c-3,0-5.2-2.1-5.2-4.9c0-2.8,2.2-4.9,5.2-4.9
		C-332.4,298.8-330.2,300.9-330.2,303.6z M-338.1,303.6c0,1.7,1.2,2.9,2.7,2.9c1.4,0,2.7-1.2,2.7-2.9c0-1.7-1.2-2.9-2.7-2.9
		C-336.8,300.9-338.1,302.1-338.1,303.6z M-320.6,298.9c2.4,0,3.9,1.2,3.9,3.3c0,2.2-1.4,3.5-3.9,3.5h-1.8v2.7h-2.4v-9.5
		C-324.8,298.9-320.6,298.9-320.6,298.9z M-322.2,303.9h1.7c1.1,0,1.7-0.6,1.7-1.5c0-1-0.7-1.5-1.7-1.5h-1.7V303.9z"/>
</g>
</svg>
